<?xml version="1.0" encoding="utf-8"?>
<!-- Generator: Adobe Illustrator 28.0.0, SVG Export Plug-In . SVG Version: 6.00 Build 0)  -->
<svg version="1.1" id="Layer_1" xmlns="http://www.w3.org/2000/svg" xmlns:xlink="http://www.w3.org/1999/xlink" x="0px" y="0px"
	 viewBox="0 0 1920 611.4" style="enable-background:new 0 0 1920 611.4;" xml:space="preserve">
<style type="text/css">
	.st0{fill:url(#SVGID_1_);}
	.st1{fill:url(#SVGID_00000155853066185552314050000002115141965153661603_);}
	.st2{fill:url(#SVGID_00000055697115314791116220000012604899187745674416_);}
	.st3{fill:url(#SVGID_00000004530966055906384080000010033187734512235406_);}
	.st4{fill:url(#SVGID_00000136402723553735381690000004616363922340542907_);}
	.st5{fill:url(#SVGID_00000136412844152616117930000014556930615942697147_);}
	.st6{fill:url(#SVGID_00000183964311352446223400000013443003753109512100_);}
	.st7{fill:url(#SVGID_00000084516093754932675760000016018193831451339433_);}
	.st8{fill:url(#SVGID_00000172426221778108986630000012617452099962219436_);}
	.st9{enable-background:new    ;}
	.st10{fill:#141414;}
</style>
<g>
	<linearGradient id="SVGID_1_" gradientUnits="userSpaceOnUse" x1="87.3719" y1="204.5316" x2="3552.5635" y2="477.2125">
		<stop  offset="0" style="stop-color:#8A4D7B"/>
		<stop  offset="1" style="stop-color:#231F20"/>
	</linearGradient>
	<path class="st0" d="M1866.2,385.5c-2.2-5.5-5.3-11.1-9.5-15.3c-20.8-21-47.4-29.9-75.8-31.8c-31.3-2.1-62.8-1.2-94.2-1.6
		c-2.2,0-4.4,0-7.3,0c0.4-3.2,0.8-5.6,1.1-8c1.4-12.3,3.7-24.6,3.8-36.9c0.5-39.1,0.2-78.1,0.2-117.2c0-11.1,0.2-22.1-0.4-33.1
		c-0.2-2.4-3.4-6-5.9-6.6c-10.3-2.4-22.4,5.2-24.8,15.5c-1.8,7.9-3.6,16-3.6,24c0.2,26.4-4.4,51.6-16.2,75.4c-1.6,3.2-2.6,7-4.9,9.5
		c-1.9,2-5.8,4-8,3.4c-2.6-0.8-5.4-4.1-6.2-6.9c-1.3-4.5-1.6-9.4-1.5-14.1c0.7-23,1.4-46,2.6-69c0.4-7.6,2.3-15.1,3.4-22.7
		c0.2-1.5,0.6-3.5-0.2-4.5c-4.8-6.1-11.7-7.3-18.9-7c-6.2,0.3-8.8,4.7-10.1,10.2c-0.8,3.7-1.4,7.5-2.3,11.2c-3,12.2-8,24.3-8.7,36.7
		c-1.2,20.9-0.5,42,0.7,62.9c0.9,15.5,10,26.2,21.6,27.6c7.4,0.9,14.9,0.8,22.3,1.6c12.7,1.3,22.2-2.2,25.8-15.7
		c0.4-1.4,1.4-2.6,2.2-3.9c1.3,2.2,1.6,4.3,1.2,6.4c-1.3,8.2-2.9,16.4-4,24.7c-1.4,10.5-5.1,20-11.5,28.5c-5.7,7.6-11.9,9.2-20.7,5
		c-6.7-3.2-13.2-7-19.9-10.2c-7.6-3.7-13.2-1.2-14.5,7c-0.8,5.4-3,6.9-8.3,7c-80.2,1.3-160.4,2.7-240.6,4.4
		c-68.7,1.5-137.3,3.2-206,5c-59.9,1.5-119.7,3.3-179.6,4.9c-2.6,0.1-5.3-0.2-8-0.4c0.6-19.3,1.3-38,1.8-56.7c0.1-4.3,2.3-5,5.9-5.4
		c37.7-4.7,61-28.9,71.8-62.2c4.1-12.6,4.6-26.7,4.7-40.1c0-8.5-1.4-18.9-6.4-25c-8.8-10.7-21.2-17.3-36.5-14.2
		c-9.7,2-19.6,3.6-30.2,5.5c0-1.9,0.7-5-0.2-7.5c-1.2-3.3-3-7.9-5.7-9c-16.7-7-26.8-7.1-29.2,13.6c-0.2,1.8-0.5,3.6-0.6,5.4
		c-1.4,20.2-2.7,40.5-4.2,60.7c-0.3,4.5-1.2,9-1.6,13.4c-2.7,27.8-5.8,55.6-7.7,83.5c-0.9,13.1,0.6,26.3,1.1,39.7
		c-0.9,0.1-2,0.4-3.1,0.5c-49.9,1.6-99.8,3.2-149.7,4.7c-58.7,1.8-117.4,3.4-176.2,5.2c-55.6,1.8-111.1,3.8-166.7,5.6
		c-80.6,2.7-161.2,5.1-241.9,8.1c-21.9,0.8-43.7,3.1-65.5,5.1c-3.6,0.3-7.1,2.5-12.1,4.5c2.3,1.5,2.9,1.9,3.4,2.2
		c1.2,0.7,2.3,1.3,3.5,2c15.2,8.2,31.4,12.8,48.7,12.1c29.8-1.2,59.6-3.5,89.3-4.2c94-2.1,188-4.1,282-5.3
		c114.8-1.5,229.6-2.8,344.4-2.8c225.1-0.1,450.2,0.4,675.3,1.5c99.7,0.5,199.3,3,298.9,4.5c8.3,0.1,16.7,0.4,25.1,0.1
		C1865.5,396.7,1868.8,392.3,1866.2,385.5z M947.3,197.9c0.8-15,21.3-27.7,32.9-26.9c7.2,0.5,8.8,6.3,8.7,11.7
		c-0.1,7.6-1.2,15.3-2.6,22.8c-4.3,23.2-15.8,42.5-33.6,57.9c-1.8,1.6-4.7,2-7.1,2.9c-0.6-2.3-1.6-4.6-1.7-6.9
		c-0.3-5-0.1-9.9-0.1-14.9c-0.1,0-0.3,0-0.4,0C944.7,228.9,946.4,213.5,947.3,197.9z"/>
	
		<linearGradient id="SVGID_00000026128416377729532210000008751698792391130789_" gradientUnits="userSpaceOnUse" x1="96.2961" y1="91.124" x2="3561.4875" y2="363.8049">
		<stop  offset="0" style="stop-color:#8A4D7B"/>
		<stop  offset="1" style="stop-color:#231F20"/>
	</linearGradient>
	<path style="fill:url(#SVGID_00000026128416377729532210000008751698792391130789_);" d="M1191.5,288.7c7.9-4.3,14.8-10.2,22-15.7
		c3.6-2.7,5.8-2.9,8.7,1.2c4.8,6.6,9.8,13,15.7,18.6c3.6,3.4,8.6,5.6,13.4,7.1c12.5,4,25,0.3,37.3-1.7c2.1-0.3,4.6-3.5,5.5-5.9
		c2.4-6.9-2-11.3-6.7-15.6c-12.6-11.5-25.1-23.1-37.5-34.6c15.5-21.3,21.6-37.2,24.7-63.9c1.9-16.2-0.5-19.4-16.5-22.2
		c-2.2-0.4-4.5-0.8-6.7-0.8c-9.1-0.4-13.1,2.9-15.5,11.7c-3.3,12.1-6.9,24-10.5,36.6c-1.6-0.9-2.6-1.2-3-1.8
		c-6.8-11.6-13.6-23.3-20.3-35c-3.7-6.4-1.9-11.3,3.9-15.7c17.9-13.5,23.7-32.9,25.2-54c1.2-16.6-12.5-36.2-27.6-38.9
		c-8.1-1.4-16.7-1.6-24.9-0.8c-20.1,2-38.1,24-35.9,44c1.4,12.9,3.2,26,6.6,38.5c2.9,10.4-0.2,16-8.6,22
		c-10.8,7.8-19.7,18-23.9,31.1c-2.7,8.3-3.7,17.1-6.1,25.6c-4.4,15.5-2.6,31.2,2.9,45.2C1126.6,295.8,1166.1,302.4,1191.5,288.7z
		 M1176.7,90.5c0.3-4.7,1.5-9.7,7.4-10.7c5.6-1,6.8,3.9,9.2,7.4c10.6,15.5,2.2,32.8-5.8,45.8c-0.4,0.7-1.4,0.9-2.7,1.7
		c-5.5-7.2-7.1-15.6-8.1-23.9C1175.7,104.1,1176.2,97.2,1176.7,90.5z M1154.2,204.6c3.8-6.4,9.1-11.9,14.2-18.3
		c4.8,9.7,8.5,18.1,13.1,26c4.7,8.2,10.3,15.8,15.1,24c1.1,1.9,1.2,5.3,0.3,7.3c-4.8,10.8-18.9,18.4-30.6,17
		c-7.9-0.9-15.1-8.8-16.5-19.1C1148,228.9,1147.4,216,1154.2,204.6z"/>
	
		<linearGradient id="SVGID_00000178186372464705936940000007075421063925997232_" gradientUnits="userSpaceOnUse" x1="93.1813" y1="130.7064" x2="3558.3728" y2="403.3872">
		<stop  offset="0" style="stop-color:#8A4D7B"/>
		<stop  offset="1" style="stop-color:#231F20"/>
	</linearGradient>
	<path style="fill:url(#SVGID_00000178186372464705936940000007075421063925997232_);" d="M740.2,290.2c10.7,9.5,24.8,9.8,38,12.2
		c7.6,1.4,13.7-2.5,17.6-9c3.7-6.2,6.9-12.7,10.2-19.1c2.3-4.5,4.3-9.2,6.4-13.8c0.7,0,1.5-0.1,2.2-0.2c1.2,2.9,2.7,5.7,3.5,8.7
		c2.1,7.6,3.3,15.5,5.9,22.9c1.3,3.7,4.3,7.3,7.5,9.7c8.5,6.4,17.2,2.2,25.7-0.9c6-2.2,7.7-6.3,6.3-12.3c-4.2-18-8.7-35.9-12.3-54
		c-1.5-7.6-2.2-15.8-1.4-23.5c2.5-24.9,5.7-49.8,9.1-74.6c2-15,5-29.8,7.2-44.8c1.1-7.6-3.3-15.5-8.8-17.6
		c-13-4.7-26.4,1.5-30.2,14.7c-4.1,14.2-7.6,28.6-11,43c-2.5,10.5-4.7,21.1-6.8,31.6c-1.7,8.6-1.8,17.6-4.7,25.8
		c-7.5,21.4-16.1,42.4-24.5,63.6c-2.1,5.3-6.7,9.3-11.9,8c-3.2-0.8-6.9-6-7.6-9.7c-3.6-19.1-4.9-38.5-1-57.8
		c1.5-7.5,3-15.1,3.7-22.7c2.1-25.2,3.9-50.4,5.4-75.6c0.4-6.5-0.1-13.1-1-19.5c-0.3-2.6-2.3-6.6-4.2-7.1c-8-1.9-16.2-3.8-24.3-3.6
		c-7.3,0.2-11.9,5.4-12.9,13.3c-2.6,22.2-6.4,44.2-7.9,66.5c-1.7,26.1-1.4,52.3-2.1,78.4c-0.5,17.4,2.2,34.4,9.8,50
		C729.3,279.3,734.7,285.2,740.2,290.2z"/>
	
		<linearGradient id="SVGID_00000074434831412053237810000000727933149575395463_" gradientUnits="userSpaceOnUse" x1="98.2131" y1="66.7634" x2="3563.4045" y2="339.4442">
		<stop  offset="0" style="stop-color:#8A4D7B"/>
		<stop  offset="1" style="stop-color:#231F20"/>
	</linearGradient>
	<path style="fill:url(#SVGID_00000074434831412053237810000000727933149575395463_);" d="M1405.1,117.6c4.4,0.6,5.8,2.4,5,6.7
		c-1.3,7.1-2.6,14.2-3.2,21.4c-2.3,28.3-5.1,56.5-6.2,84.9c-0.8,20.4-0.6,40.8,18.6,55.7c10.4,8.1,20.4,11.3,31.7,6.3
		c13.5-6.1,27.5-12.3,38.9-21.5c38.4-30.8,56.8-71.8,56.6-121c0-1.8,0.2-3.6,0-5.4c-3.4-35.3-14.8-66.2-49.4-82.5
		c-8.8-4.2-18.6-6.2-28.1-8.7c-5.6-1.5-11.7-3.2-17.3-2.4c-20.4,2.9-40,8.5-57,21c-7.4,5.5-14.2,11.9-11.4,21.8
		C1386.3,105,1391.4,115.7,1405.1,117.6z M1445,229.3c3.2-41.1,6.9-82.2,10.4-123.4c0.5-5.8,2.9-9.5,9-11.1
		c12.9-3.5,24.8,0.6,33.4,11.8c7.7,10.1,10.6,21.7,11.6,34.1c2.7,34.3-5,65.6-28.3,91.6c-8.2,9.1-18.8,16.1-28.5,23.8
		c-2,1.6-4.7,2.3-7.7,3.7C1444.9,248.9,1444.2,239,1445,229.3z"/>
	
		<linearGradient id="SVGID_00000178889057473808811370000003152199611505375414_" gradientUnits="userSpaceOnUse" x1="89.8614" y1="172.896" x2="3555.0527" y2="445.5768">
		<stop  offset="0" style="stop-color:#8A4D7B"/>
		<stop  offset="1" style="stop-color:#231F20"/>
	</linearGradient>
	<path style="fill:url(#SVGID_00000178889057473808811370000003152199611505375414_);" d="M117.7,262.5
		c17.3,23.1,41.5,33.2,70.3,31.3c7.1-0.5,15.9,0,20.8-3.9c14.2-11.1,24-25.7,23.5-45c-0.2-7.1-5.7-11.9-12.2-9.2
		c-6.2,2.5-11.7,7.1-17,11.5c-3.8,3.1-6.5,7.5-9.9,11c-5.3,5.4-11.5,5.8-18,2.6c-9.9-4.9-16.4-13.4-19.4-23.3
		c-3.8-12.8-5.2-26.3-7.4-38.2c2-17.5,3.6-33.2,5.7-48.8c2.1-16.3,10.2-30.3,18.2-44.2c4-7,10.5-9.2,15.9-6.5
		c9.4,4.7,13.8,14.9,10.6,25c-0.9,2.8-1.6,5.7-2.7,8.4c-1.7,4.2-0.4,7.2,2.9,10c8.1,6.7,17.4,5.6,26.5,4.3c3.4-0.5,7.6-3.2,9.4-6.1
		c10.8-18.1,5.9-46.2-9.9-60.2c-10.8-9.5-23.6-14.3-37.6-14.8c-10.3-0.4-21.9-2-30.7,2c-25,11.2-41,31.8-47.2,58.4
		c-3.3,14.3-2.7,29.5-3.8,44.3c-1.6,21-2.4,42,1.7,62.7C109.2,243.6,111.8,254.6,117.7,262.5z"/>
	
		<linearGradient id="SVGID_00000165216242005562707150000011800106040583241892_" gradientUnits="userSpaceOnUse" x1="88.1045" y1="195.2217" x2="3553.2959" y2="467.9026">
		<stop  offset="0" style="stop-color:#8A4D7B"/>
		<stop  offset="1" style="stop-color:#231F20"/>
	</linearGradient>
	<path style="fill:url(#SVGID_00000165216242005562707150000011800106040583241892_);" d="M291,284.2c9.1,2.6,18.2,5.3,27.3,8
		c7.3,2.1,13.7,0.7,17.3-5.7c5.5-9.7,10-20.1,14.9-30.2c0.7-1.5,1.3-3,2-4.5c0.6,0.1,1.1,0.2,1.7,0.2c1.4,4,2.8,8,4.1,12.1
		c1.4,4.1,3.1,8,4,12.2c1.9,9.1,7.1,13.4,20.3,14c2.7,0.1,5.4-0.3,8.1-0.5c8.7-0.6,10.9-5.3,8-13.7c-3.7-10.4-7.1-21-9-31.7
		c-2.3-13.5-3.4-27.3-4.1-41c-0.9-18.2-0.8-36.4-1.4-54.6c-0.2-8.1-3.6-11.5-11.5-9.8c-4.5,1-10.2,4.3-12.1,8.1
		c-5.3,10.6-9.5,21.9-12.9,33.2c-4.5,15-7.4,30.5-11.8,45.6c-2.6,9-6.5,17.7-10,26.5c-1.9,4.7-6,5.9-10.7,5.1
		c-5.1-0.8-4.6-5-4.3-8.5c1.4-14.3,2.5-28.7,4.7-42.9c2.3-14.7,5.8-29.2,8.8-43.7c1.2-5.9,0.2-10.3-6.4-12.1c-1.7-0.5-3.3-1.4-5-2
		c-14.6-5.3-27.8,1.5-30.9,16.6c-1.6,7.9-1.9,16.1-2.6,24.2c-2.1,23.8-4.4,47.6-6,71.5C272.7,273.4,278.5,280.6,291,284.2z"/>
	
		<linearGradient id="SVGID_00000091713939790351625840000007921991891535554222_" gradientUnits="userSpaceOnUse" x1="96.8633" y1="83.9159" x2="3562.0549" y2="356.5967">
		<stop  offset="0" style="stop-color:#8A4D7B"/>
		<stop  offset="1" style="stop-color:#231F20"/>
	</linearGradient>
	<path style="fill:url(#SVGID_00000091713939790351625840000007921991891535554222_);" d="M1780.5,300.7c3.3,0.8,6.6,1.5,10,2
		c11.6,1.7,22.4-1.2,28.8-10.7c6.8-10.1,11.4-21.8,16.4-33.1c0.9-2-0.6-6.1-2.3-7.9c-2.7-2.7-6.3-5.8-10.6-2.1
		c-5.9,5.2-12,10.2-17.3,16c-9.1,9.9-18.7,9.6-26.9-1.1c-8.8-11.5-7.5-25.6-10.8-39.5c3,0,4.8,0,6.5,0c9-0.1,18,0,27-0.6
		c2.8-0.2,6.4-1.8,8.1-4c11.2-14.4,20.1-30.2,21.8-48.7c1.8-18.8-10.6-33.4-32.2-38c-19.4-4.2-37.7-1.9-47.2,18.6
		c-6,13-13,25.8-17.3,39.4c-7.4,23.2-10.1,46.5-0.2,70.5C1743.3,283.3,1758.6,295.3,1780.5,300.7z M1771.2,198.4
		c2.7-13.4,7.7-25.9,15.7-37c1.9-2.6,7.2-4.8,10.1-4c2.7,0.7,4.2,5.7,6.7,9.6c-3.7,9.9-6.6,19.2-10.8,28.1c-3.3,7-10,9.2-17.7,8.5
		C1771.9,203.3,1770.4,202.1,1771.2,198.4z"/>
	
		<linearGradient id="SVGID_00000063626843601848734530000001819030459111056043_" gradientUnits="userSpaceOnUse" x1="93.1236" y1="131.4402" x2="3558.3149" y2="404.1211">
		<stop  offset="0" style="stop-color:#8A4D7B"/>
		<stop  offset="1" style="stop-color:#231F20"/>
	</linearGradient>
	<path style="fill:url(#SVGID_00000063626843601848734530000001819030459111056043_);" d="M558.8,208.2c-0.8,18.5,1.2,36.4,6.1,54
		c3.2,11.4,5.7,23.3,17.2,30.3c7.5,4.7,13.3,5.8,19.4,1.9c6.5-4.2,6.9-10.7,6.1-17.4c-2-16.3-4.9-32.6-5.9-48.9
		c-2.5-42.6-4.1-85.2-6-127.8c0.5,0,1.1,0,1.6,0c0-15.1-0.2-30.2,0.1-45.4c0.1-4.8-1.8-7.5-6.1-9.3c-12.9-5.4-28.4,5.2-29.4,20.1
		c-0.9,13.5-2.1,27-2.8,40.5c-0.7,14.2-1.3,28.4-1.3,42.5C557.9,168.5,559.6,188.4,558.8,208.2z"/>
	
		<linearGradient id="SVGID_00000119802258458543332110000017126129768380407990_" gradientUnits="userSpaceOnUse" x1="88.4982" y1="190.2182" x2="3553.6897" y2="462.899">
		<stop  offset="0" style="stop-color:#8A4D7B"/>
		<stop  offset="1" style="stop-color:#231F20"/>
	</linearGradient>
	<path style="fill:url(#SVGID_00000119802258458543332110000017126129768380407990_);" d="M433.2,227.3c0.6,9.1-0.5,18.2-0.5,27.4
		c0,10.8-0.4,22.2,6.2,31.3c4.5,6.2,10.1,13,16.7,15.8c8.5,3.5,20.7-7.8,20.8-17.2c0.2-21.2,0.3-42.4,0.3-63.6
		c0-8.4,2.6-16.4,8.9-21.1c13-9.6,23.8-23.2,41.5-25.2c1.7-0.2,4.4-3.4,4.4-5.2c0.1-10.4-7.3-18.1-17.6-18.6
		c-12.8-0.6-24.7,1.6-33.8,11.9c-2.1,2.3-4.6,4.3-6.9,6.4c-0.7-0.2-1.5-0.4-2.2-0.7c1.1-6.3,1.8-12.6,3.3-18.8
		c1.4-5.5-0.4-8.9-5.6-10.3c-4.8-1.4-9.6-2.5-14.5-3.4c-8.8-1.5-15.9,1.3-21,8.9c-7.3,10.8-5.6,22.9-4.6,34.7
		C430,195.5,432.2,211.4,433.2,227.3z"/>
</g>
<g class="st9">
	<path class="st10" d="M385.2,502.6h-38.8v-73.9h37.2v7.4h-29.1v25.1h26.9v7.4h-26.9v26.4h30.7V502.6z"/>
	<path class="st10" d="M450.4,502.6h-9.9l-17.3-28.6c-0.5-0.8-1-2-1.7-3.6h-0.2c0,0.2-0.6,1.4-1.7,3.6l-17.8,28.6h-10.1l24.8-37.2
		l-22.8-36.7h10l15.4,26.2c1,1.7,1.9,3.5,2.7,5.1h0.2c1.1-2.4,2.1-4.1,3-5.3l15.9-26h9.4l-23.3,36.6L450.4,502.6z"/>
	<path class="st10" d="M506.7,436.2h-21.3v66.4h-8.2v-66.4h-21.3v-7.4h50.8V436.2z"/>
	<path class="st10" d="M570.7,502.6H561l-12.4-20.8c-2.6-4.5-5-7.4-7.2-8.8c-2.2-1.4-4.7-2.1-7.6-2.1h-7.3v31.6h-8.1v-73.9h21.8
		c6.8,0,12.2,1.7,16.2,5.2c4,3.5,6,8.3,6,14.4c0,10.2-5.5,16.8-16.4,19.9v0.2c2,0.9,3.7,2.1,5,3.5c1.3,1.4,3.3,4.3,5.9,8.5
		L570.7,502.6z M526.5,436.3v27.2h12.1c4.5,0,8.1-1.3,11-3.9c2.8-2.6,4.2-6.1,4.2-10.5c0-4-1.3-7.1-3.9-9.4s-6.3-3.4-11.3-3.4H526.5
		z"/>
	<path class="st10" d="M619.9,502.6h-38.8v-73.9h37.2v7.4h-29.1v25.1h26.9v7.4h-26.9v26.4h30.7V502.6z"/>
	<path class="st10" d="M700.9,502.6v-49.9c0-3.8,0.3-8.5,0.8-14.3h-0.2c-0.9,3.5-1.6,5.8-2.2,7l-25.8,57.2h-3.6l-25.7-56.8
		c-0.7-1.5-1.4-3.9-2.1-7.3h-0.2c0.3,2.6,0.4,7.3,0.4,14.1v50h-7.9v-73.9h10.6l23.1,52c1.8,4.1,3,7,3.4,8.7h0.3c1-2.6,2.1-5.6,3.6-9
		l23.7-51.8h10v73.9H700.9z"/>
	<path class="st10" d="M785.3,502.6h-9l-8-21h-31.7l-7.5,21H720l28.4-73.9h8.3L785.3,502.6z M765.5,474.2l-11.8-31.9
		c-0.3-0.9-0.7-2.5-1.1-4.9h-0.2c-0.4,2.2-0.7,3.8-1.2,4.9l-11.7,31.9H765.5z"/>
	<path class="st10" d="M834.3,502.6h-38v-73.9h8.1v66.4h29.9V502.6z"/>
	<path class="st10" d="M870.1,502.6v-73.9h20.7c6.1,0,11.1,1.5,14.8,4.6c3.8,3.1,5.6,7.2,5.6,12.3c0,4.1-1.1,7.8-3.3,10.9
		c-2.2,3.1-5.3,5.4-9.4,6.7v0.2c4.9,0.5,8.9,2.3,11.9,5.5s4.5,7.4,4.5,12.5c0,6.3-2.2,11.4-6.7,15.3c-4.5,3.9-10.2,5.9-17.1,5.9
		H870.1z M878.2,436.3v24.3h9c4.9,0,8.7-1.2,11.4-3.5c2.7-2.3,4.1-5.6,4.1-9.8c0-7.3-4.8-11-14.3-11H878.2z M878.2,468.1v27h12
		c5.1,0,9.1-1.2,11.9-3.6c2.9-2.4,4.3-5.8,4.3-10.1c0-8.9-6.1-13.3-18.2-13.3H878.2z"/>
	<path class="st10" d="M968.9,502.6h-38.8v-73.9h37.2v7.4h-29.1v25.1h26.9v7.4h-26.9v26.4h30.7V502.6z"/>
	<path class="st10" d="M1040.5,502.6h-9l-8-21h-31.7l-7.5,21h-9.1l28.4-73.9h8.3L1040.5,502.6z M1020.7,474.2l-11.8-31.9
		c-0.3-0.9-0.7-2.5-1.1-4.9h-0.2c-0.4,2.2-0.7,3.8-1.2,4.9l-11.7,31.9H1020.7z"/>
	<path class="st10" d="M1103.7,472.9c0,20.6-9.3,31-27.9,31c-17.7,0-26.6-9.9-26.6-29.8v-45.3h8.1v44.7c0,15.4,6.5,23,19.5,23
		c12.5,0,18.8-7.4,18.8-22.2v-45.6h8.1V472.9z"/>
	<path class="st10" d="M1165.5,436.2h-21.3v66.4h-8.2v-66.4h-21.3v-7.4h50.8V436.2z"/>
	<path class="st10" d="M1226.2,428.8l-24.4,46.6v27.3h-8.2v-27.2l-23.8-46.7h9.3l16.8,33.8c0.3,0.5,0.9,2,1.8,4.4h0.1
		c0.3-1.1,1-2.6,2-4.4l17.6-33.8H1226.2z"/>
	<path class="st10" d="M1257.7,489.9c2.1,1.9,5,3.4,8.9,4.7c3.9,1.3,7.5,1.9,10.8,1.9c10.7,0,16.1-3.9,16.1-11.7
		c0-2.2-0.6-4.2-1.7-5.9c-1.1-1.7-2.6-3.2-4.5-4.5c-1.9-1.3-5.6-3.3-11.2-6.2c-8-4.1-13.1-7.7-15.2-10.7c-2.1-3.1-3.2-6.5-3.2-10.4
		c0-5.9,2.4-10.7,7.2-14.3s10.9-5.3,18.2-5.3c7.4,0,12.6,0.9,15.7,2.6v9.4c-4.3-3-9.9-4.5-16.7-4.5c-4.7,0-8.5,1-11.4,3
		c-3,2-4.4,4.8-4.4,8.4c0,2.2,0.5,4.2,1.6,5.8c1,1.6,2.4,3.1,4.2,4.3c1.8,1.2,5.2,3.1,10.4,5.7c7.3,3.6,12.3,7.1,15.2,10.5
		c2.9,3.4,4.3,7.2,4.3,11.5c0,6.3-2.3,11.2-6.9,14.6s-11,5.2-19.2,5.2c-2.5,0-5.8-0.4-9.8-1.2s-6.8-1.8-8.5-3V489.9z"/>
	<path class="st10" d="M1373.6,502.6h-9l-8-21h-31.7l-7.5,21h-9.1l28.4-73.9h8.3L1373.6,502.6z M1353.8,474.2l-11.8-31.9
		c-0.3-0.9-0.7-2.5-1.1-4.9h-0.2c-0.4,2.2-0.7,3.8-1.2,4.9l-11.7,31.9H1353.8z"/>
	<path class="st10" d="M1422.6,502.6h-38v-73.9h8.1v66.4h29.9V502.6z"/>
	<path class="st10" d="M1425.5,466.6c0-11.9,3.2-21.3,9.7-28.4c6.4-7.1,15.1-10.6,26.1-10.6c10.2,0,18.4,3.5,24.6,10.4
		c6.2,6.9,9.3,15.9,9.3,26.8c0,11.8-3.1,21.3-9.4,28.4c-6.3,7.2-14.9,10.7-25.7,10.7c-10.4,0-18.8-3.5-25.1-10.4
		C1428.7,486.5,1425.5,477.5,1425.5,466.6z M1434.1,465.8c0,8.9,2.4,16.2,7.1,22c4.7,5.8,11,8.7,18.9,8.7c8.4,0,15-2.7,19.7-8.2
		c4.7-5.5,7-12.9,7-22.3c0-9.7-2.3-17.3-6.8-22.8c-4.5-5.5-10.9-8.2-19.2-8.2c-8.1,0-14.5,2.9-19.4,8.8
		C1436.5,449.5,1434.1,456.9,1434.1,465.8z"/>
	<path class="st10" d="M1569,502.6h-10.2l-38.5-59.7c-0.9-1.4-1.6-2.9-2.3-4.4h-0.3c0.3,1.5,0.4,4.8,0.4,9.9v54.2h-8.2v-73.9h10.8
		l37.5,59.1c1.9,3.1,2.9,4.7,3,5.1h0.2c-0.4-2.4-0.5-6.2-0.5-11.1v-53h8.2V502.6z"/>
</g>
</svg>
